<svg width="265" height="33" viewBox="0 0 265 33" fill="none" xmlns="http://www.w3.org/2000/svg">
<path d="M17.0189 15.2192V12.8318C17.0189 12.1646 16.8265 11.7284 16.4416 11.5225C16.1586 11.3432 15.658 11.253 14.9396 11.253H4.54357V16.798H14.9396C15.658 16.798 16.1586 16.7082 16.4416 16.5281C16.8265 16.3229 17.0189 15.8868 17.0189 15.2192ZM23.5647 27.6946H16.9422L8.9329 20.1862H4.54357V27.6946H0V7.82618H17.0189C19.9964 7.82618 21.4858 9.10996 21.4858 11.6764V16.3356C21.4858 18.2611 20.7156 19.4547 19.1754 19.9167C18.5846 20.0964 16.9935 20.1862 14.4008 20.1862L23.5647 27.6946Z" fill="#222329"/>
<path d="M47.1215 27.6956H26.5986V7.82716H46.929V11.2154H31.219V15.6436H40.3832V19.0318H31.219V23.9603H47.1215V27.6956Z" fill="#222329"/>
<path d="M97.745 22.9977C97.745 24.8461 97.3852 26.0917 96.6668 26.733C95.9476 27.3747 94.6511 27.6956 92.7776 27.6956H80.4947C78.4667 27.6956 77.1312 27.3365 76.4903 26.6173C75.8482 25.8989 75.5273 24.5129 75.5273 22.459L79.6093 21.6118V23.9603H93.6634V19.4171H81.2645C79.391 19.4171 78.1005 19.0962 77.3952 18.4542C76.6887 17.8128 76.336 16.5676 76.336 14.7193V12.5242C76.336 10.6763 76.6887 9.43179 77.3952 8.78971C78.1005 8.14838 79.391 7.82716 81.2645 7.82716H92.5466C94.4459 7.82716 95.7424 8.15438 96.4358 8.80881C97.1288 9.46361 97.4755 10.7283 97.4755 12.6014L93.3939 13.5643V11.2921H80.379V15.5661H92.7776C94.6511 15.5661 95.9476 15.8877 96.6668 16.5291C97.3852 17.1711 97.745 18.416 97.745 20.264V22.9977Z" fill="#222329"/>
<path d="M123.198 22.9438C123.198 24.7921 122.845 26.0377 122.139 26.679C121.433 27.3208 120.143 27.6416 118.27 27.6416H106.41C104.536 27.6416 103.246 27.3208 102.54 26.679C101.834 26.0377 101.481 24.7921 101.481 22.9438V12.4703C101.481 10.6223 101.834 9.37783 102.54 8.73576C103.246 8.09443 104.536 7.7732 106.41 7.7732H118.27C120.631 7.7732 122.094 8.32505 122.659 9.42837C123.019 10.0704 123.198 11.7136 123.198 14.3572L118.578 15.0891V11.3153H106.102V23.9063H118.578V19.6323L123.198 20.5952V22.9438Z" fill="#222329"/>
<path d="M143.485 19.7634L139.211 11.677L134.783 19.7634H143.485ZM152.996 27.6956H147.797L145.41 23.344H132.819L130.509 27.6956H125.888L137.132 7.82678H141.598L152.996 27.6956Z" fill="#222329"/>
<path d="M175.241 27.6956H155.719V7.82716H160.339V23.9603H175.241V27.6956Z" fill="#222329"/>
<path d="M199.506 27.6956H178.983V7.82716H199.314V11.2154H183.604V15.6436H192.768V19.0318H183.604V23.9603H199.506V27.6956Z" fill="#222329"/>
<path fill-rule="evenodd" clip-rule="evenodd" d="M65.4242 4.35426L72.1871 0.921875L73.0411 8.45755L71.0485 7.38415L64.5918 19.1157H64.5783L59.8562 27.6955H56.66L49.3508 15.039H54.502L58.5084 22.1894L60.7476 17.9925L60.7622 18.0183L66.2698 7.82712L67.5328 5.49017L65.4242 4.35426Z" fill="url(#paint0_linear_6504_1315)"/>
<path d="M202.819 9.2476V7.8136H203.461L203.592 8.318C203.598 8.33606 203.605 8.36594 203.615 8.40762C203.626 8.44931 203.637 8.49447 203.648 8.5431C203.661 8.59174 203.672 8.6369 203.682 8.67858H203.698C203.705 8.64801 203.714 8.61189 203.723 8.5702C203.735 8.52712 203.746 8.48335 203.757 8.43889C203.768 8.39442 203.778 8.35413 203.786 8.318L203.917 7.8136H204.536V9.2476H204.097V8.73069C204.097 8.67511 204.097 8.61814 204.097 8.55978C204.098 8.50003 204.099 8.44375 204.099 8.39095C204.1 8.33815 204.101 8.29438 204.101 8.25964H204.084C204.08 8.28743 204.074 8.32008 204.065 8.3576C204.058 8.39512 204.051 8.43264 204.042 8.47015C204.034 8.50628 204.026 8.53824 204.017 8.56603L203.832 9.2476H203.488L203.3 8.56603C203.293 8.53824 203.285 8.50628 203.275 8.47015C203.267 8.43264 203.259 8.39512 203.252 8.3576C203.245 8.32008 203.239 8.28812 203.234 8.26172H203.217C203.218 8.29646 203.22 8.34023 203.221 8.39303C203.223 8.44584 203.223 8.50142 203.223 8.55978C203.225 8.61814 203.225 8.67511 203.225 8.73069V9.2476H202.819Z" fill="#222329"/>
<path d="M201.768 9.2476V8.18044H201.297V7.8136H202.698V8.18044H202.229V9.2476H201.768Z" fill="#222329"/>
<rect x="215.742" y="2.03226" width="47.9677" height="29.5806" rx="7.22581" stroke="url(#paint1_linear_6504_1315)" stroke-width="2.06452"/>
<path d="M231.325 22.3226L235.685 10.9926H238.724L243.084 22.3226H240.425L239.616 20.093H234.677L233.868 22.3226H231.325ZM235.388 18.111H238.906L237.898 15.3198C237.854 15.1987 237.799 15.0555 237.733 14.8904C237.678 14.7142 237.617 14.5215 237.551 14.3123C237.485 14.1031 237.419 13.8994 237.353 13.7012C237.298 13.492 237.243 13.3048 237.188 13.1397H237.089C237.034 13.3489 236.962 13.5966 236.874 13.8829C236.786 14.1582 236.698 14.4279 236.61 14.6922C236.522 14.9454 236.45 15.1546 236.395 15.3198L235.388 18.111ZM244.432 22.3226V10.9926H246.893V22.3226H244.432Z" fill="url(#paint2_linear_6504_1315)"/>
<defs>
<linearGradient id="paint0_linear_6504_1315" x1="61.196" y1="0.921875" x2="61.196" y2="27.6955" gradientUnits="userSpaceOnUse">
<stop stop-color="#53A669"/>
<stop offset="1" stop-color="#00A1B3"/>
</linearGradient>
<linearGradient id="paint1_linear_6504_1315" x1="214.709" y1="16.8226" x2="264.742" y2="16.8226" gradientUnits="userSpaceOnUse">
<stop stop-color="#509964"/>
<stop offset="1" stop-color="#00B7CC"/>
</linearGradient>
<linearGradient id="paint2_linear_6504_1315" x1="231.226" y1="16.8226" x2="248.226" y2="16.8226" gradientUnits="userSpaceOnUse">
<stop stop-color="#509964"/>
<stop offset="1" stop-color="#00B7CC"/>
</linearGradient>
</defs>
</svg>
